<svg xmlns="http://www.w3.org/2000/svg" width="256" height="256" viewBox="0 0 1024 1024">
	<!-- DejaVu Sans Mono used as foreground font -->
	<rect width="1024" height="512" y="256" rx="64" ry="64"/>
	<circle cx="96" cy="352" r="32" fill="red"/>
	<circle cx="181.3" cy="352" r="32" fill="#ff0"/>
	<circle cx="266.7" cy="352" r="32" fill="#0f0"/>
	<path fill="#74e500" d="M349 512v15h12v-15zm58 0v97h12v-28l9-8 25 36h15l-32-43 27-27h-14l-30 29v-56zm96 0v15h12v-15zm309 0v15h11v-15zm-162 7v20h-18v9h18v38c0 9 2 15 6 18 3 4 9 5 18 5h14v-9h-13c-5 0-8-1-10-3s-3-6-3-11v-38h26v-9h-26v-20zm-412 20 17 70h11l11-38 11 38h11l16-70h-11l-12 57-10-36h-10l-10 36-12-57zm93 0v9h18v52h-23v9h58v-9h-23v-61zm154 0v9h18v52h-22v9h57v-9h-23v-61zm309 0v9h18v52h-23v9h57v-9h-23v-61zm-81 0v44c0 9 2 16 5 21 4 5 9 7 16 7a22 22 0 0 0 21-12v10h11v-70h-11v40c0 7-2 13-5 16-2 4-7 6-12 6s-8-1-10-4c-3-3-4-8-4-14v-44zm-144 30v10h32v-10z"/>
	<path fill="#ac9393" d="M127 573v27q7 0 11-4 4-3 4-10 0-5-3-9-4-3-12-4zm0 55h-6v-19l-13-1-12-4v-12q6 4 13 6l12 2v-28q-12-2-19-8-6-6-6-15 0-10 7-16 6-5 18-6v-15h6v15l10 1 11 3v10l-11-4-10-2v27q13 2 20 8t7 16q0 10-8 16-7 7-19 7zm-6-67v-26q-6 1-10 4-4 4-4 9 0 6 4 9 3 3 10 4z"/>
</svg>
